<mxfile compressed="false" host="Electron" modified="2020-01-15T02:53:21.374Z" agent="Mozilla/5.0 (Macintosh; Intel Mac OS X 10_14_5) AppleWebKit/537.36 (KHTML, like Gecko) draw.io/12.4.2 Chrome/78.0.3904.130 Electron/7.1.4 Safari/537.36" etag="AQGlIZTPoD2getaLZ5cU" version="12.4.2" type="device" pages="2">
  <diagram id="1dMstaCY08wY50I3MFBW" name="Tab 1">
    <mxGraphModel dx="1106" dy="860" grid="1" gridSize="10" guides="1" tooltips="1" connect="1" arrows="1" fold="1" page="1" pageScale="1" pageWidth="850" pageHeight="1100" math="0" shadow="0">
      <root>
        <mxCell id="0" style="fillColor=#ff0000"/>
        <mxCell id="1" parent="0" style="fillColor=#ff0000"/>
        <mxCell id="i4sGg8bSkyUIFC7NJkLE-1" value="thy is a test diagram" style="text=;html=1;resizable=0;points=[];autosize=1;align=left;verticalAlign=top;spacingTop=-4;fillColor=#ffffff" parent="1" vertex="1">
          <mxGeometry x="284" y="160" width="130" height="20" as="geometry"/>
        </mxCell>
        <mxCell id="i4sGg8bSkyUIFC7NJkLE-2" value="help" style="text=;html=1;resizable=0;points=[];autosize=1;align=left;verticalAlign=top;spacingTop=-4;fillColor=#dfdfdf" parent="1" vertex="1">
          <mxGeometry x="309" y="228" width="50" height="20" as="geometry"/>
        </mxCell>
        <mxCell id="i4sGg8bSkyUIFC7NJkLE-3" value="" style="endArrow=none;html=1;fillColor=#ff0000" parent="1" source="i4sGg8bSkyUIFC7NJkLE-2" target="i4sGg8bSkyUIFC7NJkLE-1" edge="1">
          <mxGeometry width="50" height="50" relative="1" as="geometry">
            <mxPoint x="200" y="280" as="sourcePoint"/>
            <mxPoint x="250" y="230" as="targetPoint"/>
          </mxGeometry>
        </mxCell>
      </root>
    </mxGraphModel>
  </diagram>
  <diagram id="GHfeHe2o456X1Uvl4aY1" name="Tab 2">
    <mxGraphModel dx="1041" dy="793" grid="1" gridSize="10" guides="1" tooltips="1" connect="1" arrows="1" fold="1" page="1" pageScale="1" pageWidth="850" pageHeight="1100" math="0" shadow="0">
      <root>
        <mxCell id="MXRy82Ifvxj1utwsVIDY-0" style="fillColor=#ff0000"/>
        <mxCell id="MXRy82Ifvxj1utwsVIDY-1" parent="MXRy82Ifvxj1utwsVIDY-0" style="fillColor=#ff0000"/>
        <mxCell id="MXRy82Ifvxj1utwsVIDY-2" value="bar" style="text=;html=1;resizable=0;points=[];autosize=1;align=left;verticalAlign=top;spacingTop=-4;fillColor=#dfdfdf" vertex="1" parent="MXRy82Ifvxj1utwsVIDY-1">
          <mxGeometry x="278" y="327" width="30" height="20" as="geometry"/>
        </mxCell>
        <mxCell id="MXRy82Ifvxj1utwsVIDY-3" value="baz" style="text=;html=1;resizable=0;points=[];autosize=1;align=left;verticalAlign=top;spacingTop=-4;fillColor=#dfdfdf" vertex="1" parent="MXRy82Ifvxj1utwsVIDY-1">
          <mxGeometry x="392" y="321" width="30" height="20" as="geometry"/>
        </mxCell>
        <mxCell id="MXRy82Ifvxj1utwsVIDY-4" value="xys" style="text=;html=1;resizable=0;points=[];autosize=1;align=left;verticalAlign=top;spacingTop=-4;fillColor=#dfdfdf" vertex="1" parent="MXRy82Ifvxj1utwsVIDY-1">
          <mxGeometry x="455" y="288" width="30" height="20" as="geometry"/>
        </mxCell>
        <mxCell id="MXRy82Ifvxj1utwsVIDY-5" value="" style="endArrow=none;html=1;fillColor=#ff0000" edge="1" parent="MXRy82Ifvxj1utwsVIDY-1" source="MXRy82Ifvxj1utwsVIDY-2" target="MXRy82Ifvxj1utwsVIDY-3">
          <mxGeometry width="50" height="50" relative="1" as="geometry">
            <mxPoint x="300" y="290" as="sourcePoint"/>
            <mxPoint x="350" y="240" as="targetPoint"/>
          </mxGeometry>
        </mxCell>
        <mxCell id="MXRy82Ifvxj1utwsVIDY-6" value="" style="endArrow=none;html=1;fillColor=#ff0000" edge="1" parent="MXRy82Ifvxj1utwsVIDY-1" source="MXRy82Ifvxj1utwsVIDY-3" target="MXRy82Ifvxj1utwsVIDY-4">
          <mxGeometry width="50" height="50" relative="1" as="geometry">
            <mxPoint x="318" y="346.2105263157896" as="sourcePoint"/>
            <mxPoint x="402" y="341.78947368421063" as="targetPoint"/>
          </mxGeometry>
        </mxCell>
      </root>
    </mxGraphModel>
  </diagram>
</mxfile>